<svg xmlns="http://www.w3.org/2000/svg" viewBox="0 0 200 64" width="200" height="64" aria-label="CHA logo horizontal">
  <!-- Logo mark -->
  <g transform="translate(2,2)">
    <circle cx="30" cy="30" r="28" fill="#ffffff" stroke="#0B1D6D" stroke-width="2"/>
    <g>
      <path d="M14 52 L14 36 Q14 30 18 28 L23 26 L25 22 L27 26 L27 30 Q27 32 29 32 L33 32 Q35 32 35 30 L35 26 L37 22 L39 26 L44 28 Q48 30 48 36 L48 52 Z" fill="#E31E24" stroke="#0B1D6D" stroke-width="1.2" stroke-linejoin="round"/>
      <path d="M22 52 L22 40 Q22 36 25 35 L28 33 L30 30 L32 33 L35 35 Q38 36 38 40 L38 52 Z" fill="#ffffff" stroke="#0B1D6D" stroke-width="1.2" stroke-linejoin="round"/>
      <path d="M30 18 Q28 22 28 24 Q28 27 30 27 Q32 27 32 24 Q32 22 30 18 Z" fill="#E31E24"/>
    </g>
  </g>
  <!-- Wordmark -->
  <text x="74" y="28" font-family="Poppins, sans-serif" font-size="11" font-weight="600" fill="#0B1D6D">Cambodian Haemophilia Association</text>
  <text x="74" y="48" font-family="Poppins, sans-serif" font-size="12" font-weight="700" fill="#0B1D6D">សមាគមហេម៉ូហ្វីលីយ៉ាកម្ពុជា</text>
  <!-- Drop accent -->
  <g transform="translate(178, 14)">
    <circle cx="8" cy="8" r="8" fill="#E31E24"/>
    <path d="M8 3 Q5 8 5 10 Q5 13 8 13 Q11 13 11 10 Q11 8 8 3 Z" fill="#ffffff"/>
  </g>
</svg>
