<svg xmlns="http://www.w3.org/2000/svg" viewBox="0 0 64 64" width="64" height="64" aria-label="CHA logo mark">
  <defs>
    <clipPath id="circle-clip">
      <circle cx="32" cy="32" r="30"/>
    </clipPath>
  </defs>
  <circle cx="32" cy="32" r="30" fill="#ffffff" stroke="#0B1D6D" stroke-width="2"/>
  <g clip-path="url(#circle-clip)">
    <!-- Red figure (supporter) -->
    <path d="M14 56 L14 36 Q14 30 18 28 L23 26 L26 22 L28 26 L28 30 Q28 32 30 32 L34 32 Q36 32 36 30 L36 26 L38 22 L41 26 L46 28 Q50 30 50 36 L50 56 Z" fill="#E31E24" stroke="#0B1D6D" stroke-width="1.5" stroke-linejoin="round"/>
    <!-- White figure (supported) -->
    <path d="M22 56 L22 40 Q22 36 25 35 L29 33 L31 30 L33 33 L37 35 Q40 36 40 40 L40 56 Z" fill="#ffffff" stroke="#0B1D6D" stroke-width="1.5" stroke-linejoin="round"/>
    <!-- Blood drop accent on chest -->
    <path d="M31 18 Q29 22 29 24 Q29 27 31 27 Q33 27 33 24 Q33 22 31 18 Z" fill="#E31E24"/>
  </g>
</svg>
